<svg width="56" height="56" viewBox="0 0 56 56" fill="none" xmlns="http://www.w3.org/2000/svg">
<circle cx="28" cy="28" r="27.5" stroke="#E5C876"/>
<path d="M34.6399 31.0815C34.2069 30.8276 33.6746 30.833 33.2437 31.089L31.0613 32.3892C30.5727 32.6804 29.9626 32.6463 29.5146 32.2964C28.7402 31.6916 27.4933 30.674 26.4085 29.5892C25.3237 28.5044 24.3061 27.2575 23.7013 26.4831C23.3514 26.0351 23.3173 25.425 23.6085 24.9364L24.9087 22.754C25.1658 22.3231 25.1679 21.7866 24.9141 21.3535L21.7119 15.8836C21.4015 15.3546 20.785 15.0943 20.1887 15.2404C19.6095 15.3812 18.8575 15.7247 18.0693 16.514C15.601 18.9823 14.2901 23.1455 23.5722 32.4276C32.8543 41.7098 37.0165 40.3999 39.4858 37.9306C40.2762 37.1402 40.6186 36.3871 40.7605 35.8068C40.9045 35.2116 40.6485 34.5994 40.1205 34.29C38.8021 33.5188 35.9583 31.8538 34.6399 31.0815Z" fill="#E2C65D"/>
</svg>
