<svg width="284" height="40" viewBox="0 0 284 40" fill="none" xmlns="http://www.w3.org/2000/svg">
<path d="M24.3352 15.5676C23.6486 16.3826 22.4341 16.49 21.6188 15.8053C20.8025 15.1207 20.6937 13.9047 21.3801 13.0886C22.0653 12.2727 23.2827 12.1647 24.0974 12.8499C24.9119 13.5346 25.0176 14.7505 24.3352 15.5676ZM24.0866 19.3621C23.7457 19.7698 23.1392 19.8224 22.731 19.4801C22.321 19.1372 22.2684 18.5298 22.6102 18.1207C22.9554 17.715 23.5611 17.6596 23.971 18.0008C24.3773 18.3451 24.4304 18.9517 24.0866 19.3621ZM20.4639 24.1576C19.7833 24.965 18.5753 25.0743 17.7662 24.3934C16.9565 23.7135 16.8489 22.5076 17.5313 21.6951C18.2097 20.8877 19.4167 20.7812 20.2258 21.461C21.0369 22.1406 21.142 23.3479 20.4639 24.1576ZM20.2401 17.4474C20.6457 17.7874 20.6983 18.3906 20.3571 18.7931C20.0185 19.1994 19.4148 19.2533 19.0113 18.9127C18.6046 18.571 18.5526 17.9693 18.8934 17.5639C19.2321 17.1605 19.8352 17.105 20.2401 17.4474ZM26.6983 19.7144L26.115 20.4162L26.6983 19.7144ZM13.2216 24.3181C12.6889 23.8701 12.6179 23.0767 13.0668 22.5417C13.5128 22.0099 14.3088 21.9431 14.8414 22.3892C15.375 22.8372 15.4452 23.6306 14.9957 24.1661C14.5492 24.6965 13.7534 24.7655 13.2216 24.3181ZM32.7713 11.453C32.4972 11.0306 31.9324 10.9138 31.5113 11.1889C30.3238 11.963 28.8395 12.2178 27.9128 12.3005C27.6477 11.9693 27.348 11.6406 26.9611 11.3153C26.8017 11.1832 26.6449 11.0801 26.4881 10.9664C26.654 10.4289 27.0511 9.17384 27.5176 7.80394C27.6798 7.32664 27.4267 6.80962 26.9489 6.64627C26.4758 6.48998 25.956 6.73718 25.7926 7.21645C25.3892 8.39536 25.0406 9.48518 24.8404 10.125C23.7366 9.78744 22.731 9.90336 21.883 10.2074C21.6003 9.45878 21.2747 8.41958 21.2884 7.8494C21.2997 7.34511 20.9014 6.92889 20.3985 6.91616C19.8338 6.96016 19.4796 7.30249 19.4651 7.80591C19.4398 8.8886 20.017 10.4616 20.2651 11.0801C19.6264 11.5539 19.2562 11.9906 19.2562 11.9906L18.2281 13.2165C17.6028 12.2949 16.7316 11.0985 16.0838 10.6198C15.6781 10.3224 15.1079 10.4076 14.8097 10.8116C14.5094 11.2173 14.5946 11.7874 15.0009 12.0871C15.4409 12.4133 16.3281 13.6391 17.0037 14.6746L14.6918 17.4303C13.6344 16.8437 12.9815 16.3011 12.3281 14.4039C12.1653 13.9275 11.642 13.6733 11.1699 13.8394C10.6937 14.0028 10.4417 14.5213 10.6051 14.9999C11.3985 17.3025 12.383 18.1803 13.5048 18.8466L12.2253 20.3701C12.2253 20.3701 12.0389 20.598 11.804 20.9786C10.331 20.4025 10.0176 20.2215 9.63722 19.9957C9.36217 19.8329 9.05395 19.6497 8.38123 19.3315C7.92472 19.1159 7.38297 19.311 7.16619 19.7655C6.95169 20.2215 7.14573 20.7655 7.60144 20.9801C8.19461 21.2599 8.46508 21.4196 8.70683 21.5639C9.19883 21.8551 9.59803 22.0724 11.0659 22.6482C10.7903 23.6014 10.7137 24.759 11.2414 25.9522C10.4744 26.3849 9.16195 27.2522 8.60224 28.3821C8.37839 28.8338 8.56479 29.3798 9.01475 29.6037C9.14486 29.6681 9.28268 29.698 9.41846 29.698C9.75512 29.698 10.0773 29.5127 10.2366 29.1903C10.5568 28.5417 11.5454 27.8636 12.269 27.4749C12.4582 27.6746 12.662 27.8764 12.8991 28.0743C13.3414 28.4451 13.7736 28.7135 14.196 28.9275C14.1937 28.9778 14.1884 29.0213 14.1846 29.0752C14.1457 29.7022 14.0228 31.6113 13.811 32.0076C13.5463 32.4351 13.6775 32.9962 14.1065 33.2627C14.2551 33.3556 14.4228 33.3997 14.5861 33.3997C14.8897 33.3997 15.1875 33.2462 15.3599 32.9701C15.7179 32.3925 15.8628 31.2676 15.9852 29.4565C17.0833 29.5491 18.056 29.2315 18.8196 28.813C19.4025 29.5743 20.0909 30.7704 19.8452 31.9778C19.7457 32.4715 20.0648 32.9522 20.5574 33.0548C20.6188 33.063 20.6798 33.0715 20.7401 33.0715C21.1642 33.0715 21.5446 32.7727 21.6316 32.3408C22.0119 30.4715 21.0809 28.7869 20.2833 27.7343C20.4886 27.5375 20.6046 27.4011 20.6046 27.4011L22.5148 25.1244C23.375 25.857 24.7571 26.9795 25.7571 27.4934C25.8915 27.5616 26.0335 27.5937 26.1724 27.5937C26.502 27.5937 26.8225 27.411 26.9844 27.0994C27.2145 26.6491 27.0369 26.1014 26.59 25.8707C25.794 25.463 24.5469 24.4602 23.6855 23.7281L25.7372 21.2846C27.6591 22.857 27.973 23.4823 28.017 23.5928C28.1534 23.9565 28.5009 24.1789 28.8673 24.1789C28.975 24.1789 29.0838 24.159 29.1918 24.1207C29.6625 23.9403 29.8985 23.4127 29.7196 22.9423C29.5378 22.4687 29.0389 21.6335 26.9091 19.8886L27.6364 19.0221C27.6364 19.0221 27.7471 18.8886 27.9014 18.6596C28.2622 18.6113 29.6596 18.4758 30.6236 19.1994C30.7869 19.3201 30.9778 19.3806 31.1699 19.3806C31.446 19.3806 31.7201 19.2533 31.8977 19.0147C32.1994 18.6107 32.1193 18.0397 31.7159 17.7378C30.7622 17.025 29.6372 16.8315 28.7793 16.8016C29.0213 15.9943 29.1298 15.0326 28.8395 14.0198C29.9256 13.8542 31.3054 13.4991 32.5065 12.7144C32.9284 12.4403 33.0483 11.8755 32.7713 11.453Z" fill="#202020"/>
<path d="M54.4727 17.1636C55.9273 17.1636 57.2364 16.5818 58.2546 15.7091C58.9818 16.2182 59.9273 16.5818 60.8727 16.5818C62.1091 16.5818 63.2727 16.0727 64.0727 15.2727C64.5818 15.9273 65.3091 16.3636 66.1818 16.3636C66.3273 16.3636 66.4727 16.3636 66.6182 16.2909C66.7637 17.2363 67.5637 17.8909 68.5091 17.8909C69.6 17.8909 70.4 17.0182 70.4 16C70.4 15.0545 69.6727 14.2545 68.7273 14.1091C68.7273 13.9636 68.8 13.8182 68.8 13.6727C68.8 12.2182 67.6364 10.9818 66.1091 10.9818C65.8182 10.9818 65.5273 11.0545 65.2364 11.1273C64.8727 9.01817 62.9818 7.41817 60.7273 7.41817C59.9273 7.41817 59.2 7.63635 58.6182 7.92726C57.6 6.6909 56.0727 5.96362 54.3273 5.96362C51.2 5.96362 48.7273 8.50908 48.7273 11.5636C48.8727 14.6909 51.4182 17.1636 54.4727 17.1636Z" fill="#202020"/>
<path d="M67.4909 18.3273L66.9818 26.9091L61.3091 23.4909V27.0545L57.7455 25.0182L55.3455 23.4909V23.5636L55.2727 23.4909V26.9818L49.3818 23.4909V34.0364H55.2727H61.2364H66.4727H67.2H71.1273L70.2546 18.3273H67.4909Z" fill="#202020"/>
<path d="M114.836 17.3818C114.546 16.0727 113.236 15.2 111.855 15.4909C110.836 15.7091 110.036 16.5818 109.964 17.6L107.055 18.2545C106.618 16.9454 105.891 15.7818 104.946 14.9091L106.327 13.1636C106.546 13.2363 106.836 13.2363 107.127 13.1636C108 12.9454 108.582 12.0727 108.364 11.2C108.146 10.3272 107.273 9.74542 106.4 9.9636C105.527 10.1818 104.946 11.0545 105.164 11.9272C105.164 12.0727 105.236 12.2181 105.309 12.2909L103.927 14.0363C102.4 13.0181 100.509 12.4363 98.5455 12.6545L97.9637 10.1091C98.4728 9.59997 98.7637 8.87269 98.6182 8.14542C98.4001 7.05451 97.3091 6.32724 96.1455 6.54542C95.0546 6.7636 94.3273 7.85451 94.5455 9.01815C94.691 9.74542 95.2728 10.3272 95.9273 10.5454L96.5091 13.0909C95.2728 13.5272 94.1819 14.2545 93.3091 15.1272L90.8364 13.2363C90.8364 13.0181 90.8364 12.8 90.8364 12.6545C90.6182 11.7091 89.7455 11.1272 88.8001 11.3454C87.8546 11.5636 87.2728 12.5091 87.491 13.3818C87.7091 14.3272 88.5819 14.9091 89.5273 14.6909C89.6001 14.6909 89.7455 14.6181 89.8182 14.6181L92.291 16.5091C91.491 17.8181 91.0546 19.3454 91.0546 20.8727L88.291 21.0909C88.0728 20.2909 87.2001 19.7818 86.4001 20C85.5273 20.2181 84.9455 21.0909 85.1637 21.9636C85.3819 22.8363 86.2546 23.4181 87.1273 23.2C87.5637 23.1272 87.8546 22.8363 88.1455 22.5454L91.2728 22.2545C91.2728 22.4 91.3455 22.4727 91.3455 22.6181C91.7091 24.2909 92.5091 25.6727 93.6728 26.7636L91.6364 29.3091C91.2728 29.1636 90.9819 29.1636 90.6182 29.2363C89.6001 29.4545 88.8728 30.5454 89.1637 31.5636C89.3819 32.5818 90.4728 33.3091 91.491 33.0181C92.5091 32.8 93.2364 31.7091 92.9455 30.6909C92.8728 30.4727 92.8001 30.3272 92.7273 30.1091L94.7637 27.5636C96.0728 28.4363 97.6728 29.0181 99.2728 29.0181L99.3455 30.9091C98.7637 31.1272 98.4001 31.7818 98.5455 32.4363C98.691 33.1636 99.4182 33.6 100.146 33.4545C100.873 33.3091 101.309 32.5818 101.164 31.8545C101.018 31.3454 100.727 30.9818 100.218 30.8363L100.146 28.9454C100.436 28.9454 100.8 28.8727 101.091 28.8C103.055 28.3636 104.727 27.2727 105.891 25.7454L108.509 27.4181C108.509 27.5636 108.509 27.7091 108.582 27.8545C108.8 28.8727 109.818 29.5272 110.836 29.3091C111.855 29.0909 112.509 28.0727 112.291 27.0545C112.073 26.0363 111.055 25.3818 110.036 25.6C109.673 25.6727 109.309 25.8909 109.091 26.1091L106.691 24.5818C107.418 23.1272 107.782 21.5272 107.564 19.7818L110.473 19.1272C110.982 20 112.073 20.4363 113.091 20.2181C114.327 20 115.127 18.6909 114.836 17.3818ZM98.4728 16.0727C99.1273 16.0727 99.5637 16.5818 99.5637 17.2363C99.5637 17.8909 99.0546 18.3272 98.4728 18.3272C97.8182 18.3272 97.3819 17.8181 97.3819 17.2363C97.3819 16.5818 97.8182 16.0727 98.4728 16.0727ZM97.9637 25.6727C96.8728 25.6727 96.0001 24.8 96.0001 23.7091C96.0001 22.6181 96.8728 21.7454 97.9637 21.7454C99.0546 21.7454 99.9273 22.6181 99.9273 23.7091C99.9273 24.8 99.0546 25.6727 97.9637 25.6727ZM102.036 21.4545C101.236 21.4545 100.509 20.8 100.509 19.9272C100.509 19.1272 101.164 18.4 102.036 18.4C102.836 18.4 103.564 19.0545 103.564 19.9272C103.491 20.7272 102.836 21.4545 102.036 21.4545Z" fill="#202020"/>
<path d="M153.854 17.2364L152.109 17.5273C151.964 16.9455 151.818 16.3636 151.6 15.8546C151.527 15.5636 151.454 15.2727 151.309 14.9818C151.164 14.7636 151.091 14.5455 150.945 14.3273C150.945 14.2546 150.873 14.1818 150.8 14.1091L152.036 13.1636C152.473 12.8 152.473 12.2909 152.182 11.8546C151.891 11.4182 151.236 11.4182 150.873 11.7091L149.709 12.6546C148.909 11.7091 147.891 10.9091 146.8 10.3273L147.309 9.01819C147.527 8.5091 147.236 8.00001 146.8 7.85456C146.291 7.63637 145.782 7.92728 145.636 8.36365L145.127 9.60001C143.964 9.23637 142.654 9.09092 141.345 9.16365L141.127 7.85456C141.054 7.34546 140.618 6.98183 140.109 7.05455C139.6 7.12728 139.236 7.63637 139.309 8.14546L139.527 9.45456C138.291 9.74546 137.127 10.3273 136.109 11.0546L135.236 9.96365C134.945 9.52728 134.291 9.52728 133.927 9.81819C133.491 10.1091 133.491 10.6909 133.782 11.1273L134.727 12.2909C133.854 13.1636 133.2 14.1818 132.691 15.3455L131.164 14.7636C130.654 14.5455 130.145 14.8364 130 15.2727C129.782 15.7091 130.073 16.2909 130.509 16.4364L132.036 17.0182C131.891 17.3091 131.818 17.6 131.745 17.9636C131.673 18.5455 131.673 19.2 131.818 19.7091C131.818 20 131.818 20.2909 131.891 20.5818L130 20.8727C129.491 20.9455 129.127 21.4546 129.2 21.9636C129.273 22.4727 129.782 22.8364 130.291 22.7636L132.254 22.4727C132.618 23.5636 133.127 24.6546 133.782 25.5273L132.109 26.8364C131.673 27.1273 131.673 27.7091 131.964 28.1455C132.182 28.4364 132.545 28.5091 132.836 28.5091C132.982 28.5091 133.127 28.4364 133.273 28.2909L135.018 26.9091C135.236 27.1273 135.454 27.2727 135.673 27.4909C136.036 28.0727 136.618 28.6546 137.273 28.9455C137.345 29.0182 137.491 29.0182 137.564 29.0909L136.836 30.9091C136.618 31.4182 136.909 31.9273 137.345 32.1455C137.491 32.2182 137.636 32.2182 137.782 32.2182C138.073 32.1455 138.364 31.9273 138.509 31.6364L139.382 29.4546C140.4 29.7455 141.491 29.8182 142.582 29.8182L142.945 32.1455C143.018 32.6546 143.527 33.0182 144.036 32.9455C144.545 32.8727 144.909 32.4364 144.836 31.9273L144.473 29.6C145.564 29.3091 146.582 28.9455 147.527 28.3636L148.982 30.1091C149.2 30.4 149.564 30.4727 149.854 30.4727C150 30.4727 150.145 30.4 150.291 30.3273C150.727 30.0364 150.727 29.3818 150.436 29.0182L149.2 27.4909C149.273 27.4182 149.345 27.3455 149.491 27.2727C149.927 26.8364 150.218 26.3273 150.436 25.7455C150.727 25.3818 150.945 25.0182 151.164 24.6546L153.127 25.3818C153.273 25.4546 153.418 25.4546 153.636 25.4546C153.927 25.3818 154.218 25.1637 154.364 24.8727C154.582 24.3636 154.291 23.8546 153.854 23.7091L152.036 22.9818C152.4 21.8909 152.618 20.7273 152.618 19.5636L154.436 19.2727C154.945 19.2 155.309 18.7636 155.236 18.2546C154.8 17.5273 154.364 17.1636 153.854 17.2364ZM140.691 11.4909C141.782 11.3455 142.8 12.0727 143.018 13.1636C143.164 14.2546 142.436 15.2727 141.345 15.4909C140.254 15.6364 139.236 14.9091 139.018 13.8182C138.873 12.7273 139.6 11.6364 140.691 11.4909ZM135.454 20.6546C134.945 20.5818 134.436 20.2909 134.145 19.8546C133.854 19.4182 133.709 18.9091 133.782 18.3273C133.927 17.4546 134.582 16.8 135.454 16.6546C135.673 16.6546 135.891 16.6546 136.109 16.6546C137.2 16.8 137.927 17.8909 137.782 18.9818C137.636 20.0727 136.545 20.8727 135.454 20.6546ZM140.909 26.1818C140.4 27.1273 139.164 27.5637 138.218 27.0546C137.2 26.5455 136.836 25.3091 137.345 24.2909C137.636 23.7091 138.218 23.3455 138.8 23.2C139.236 23.1273 139.673 23.2 140.036 23.4182C140.982 23.9273 141.418 25.1637 140.909 26.1818ZM142.291 21.6727C141.2 21.8182 140.182 21.0909 139.964 20C139.818 18.9091 140.545 17.8909 141.636 17.6727C142.727 17.5273 143.745 18.2546 143.964 19.3455C144.109 20.4364 143.382 21.5273 142.291 21.6727ZM147.745 25.5273C146.945 26.3273 145.636 26.2546 144.909 25.5273C144.545 25.1636 144.327 24.6546 144.327 24.0727C144.327 23.5636 144.545 23.0546 144.909 22.6182C145.2 22.3273 145.636 22.1091 146.073 22.0364C146.727 21.9636 147.382 22.1818 147.818 22.6182C148.545 23.4909 148.545 24.8 147.745 25.5273ZM148.473 18.6909C147.454 19.2 146.218 18.7636 145.782 17.8182C145.273 16.8 145.709 15.5636 146.654 15.1273C146.873 15.0546 147.018 14.9818 147.236 14.9091C148.109 14.7636 148.982 15.2 149.345 16C149.854 16.9455 149.418 18.1818 148.473 18.6909Z" fill="#202020"/>
<path d="M177.054 12.2909C177.636 12.2909 178.073 11.8545 178.073 11.2727C178.073 10.6909 177.636 10.2545 177.054 10.2545C176.473 10.2545 176.036 10.6909 176.036 11.2727C176.036 11.8545 176.473 12.2909 177.054 12.2909Z" fill="#202020"/>
<path d="M188.182 14.2546C187.818 14.8364 187.454 15.4182 187.164 15.9273L187.236 16C187.236 16.0728 187.309 16.0728 187.309 16.1455C187.309 16.2182 187.382 16.2182 187.382 16.2909C187.382 16.3637 187.454 16.3637 187.454 16.4364C187.454 16.5091 187.454 16.5091 187.527 16.5818C187.527 16.6546 187.527 16.6546 187.6 16.7273C187.6 16.8 187.6 16.8 187.673 16.8728C187.673 16.9455 187.673 16.9455 187.673 17.0182C188.109 16.8728 188.691 16.6546 189.2 16.4364C189.782 16.2182 190.291 15.9273 190.8 15.5637C191.236 15.2 191.673 14.7637 191.818 14.3273C192.036 13.8909 192.036 13.3818 191.745 12.8C191.454 12.2182 191.164 12.0728 190.727 12.0728C190.364 12.1455 189.927 12.4364 189.491 12.8C188.982 13.1637 188.545 13.7455 188.182 14.2546Z" fill="#202020"/>
<path d="M185.636 14.9091C185.709 14.9091 185.782 14.9818 185.855 14.9818C185.927 14.9818 186 15.0546 186.073 15.0546C186.145 15.0546 186.218 15.1273 186.291 15.2C186.364 15.2727 186.436 15.2727 186.509 15.3455C186.873 15.0546 187.236 14.6182 187.6 14.1818C187.964 13.7455 188.327 13.3091 188.691 12.8727C188.982 12.4364 189.273 12 189.418 11.5637C189.564 11.1273 189.564 10.7637 189.418 10.4727C189.418 10.4 189.345 10.3273 189.345 10.3273C189.273 10.2546 189.273 10.2546 189.2 10.1818C189.127 10.1091 189.127 10.1091 189.055 10.0364C188.982 9.96365 188.909 9.96365 188.836 9.96365C188.327 9.74547 187.964 9.8182 187.6 10.1091C187.236 10.4 186.945 10.8364 186.727 11.3455C186.509 11.8546 186.291 12.5091 186.145 13.1637C185.855 13.7455 185.782 14.3273 185.636 14.9091Z" fill="#202020"/>
<path d="M183.745 15.0547C183.818 15.0547 183.891 14.9819 183.964 14.9819C184.036 14.9819 184.109 14.9092 184.182 14.9092C184.254 14.9092 184.327 14.8365 184.4 14.8365C184.473 14.8365 184.545 14.8365 184.618 14.8365C184.764 14.4729 184.982 14.0365 185.127 13.6001C185.273 13.1638 185.491 12.7274 185.636 12.291C185.782 11.8547 185.854 11.4183 185.927 11.0547C186 10.691 185.927 10.4001 185.854 10.1092C185.782 10.0365 185.782 9.96376 185.709 9.89104C185.636 9.81831 185.564 9.81831 185.491 9.74558C185.418 9.74558 185.273 9.67285 185.127 9.74558C184.982 9.74558 184.836 9.74558 184.691 9.81831C184.109 9.96376 183.745 10.3274 183.527 10.691C183.309 11.0547 183.164 11.5638 183.164 12.0729C183.164 12.5819 183.236 13.1638 183.309 13.6729C183.527 14.1819 183.673 14.6183 183.745 15.0547Z" fill="#202020"/>
<path d="M180.4 15.0546C180.545 15.2728 180.691 15.4183 180.836 15.5637C180.982 15.7092 181.2 15.8546 181.345 16.0001C181.491 16.1455 181.709 16.291 181.854 16.3637C181.927 16.291 181.927 16.291 181.927 16.2183C181.927 16.1455 182 16.1455 182.073 16.0728C182.073 16.0001 182.145 16.0001 182.218 16.0001C182.291 16.0001 182.291 15.9274 182.364 15.9274C182.436 15.9274 182.436 15.8546 182.509 15.8546C182.582 15.8546 182.582 15.7819 182.654 15.7819C182.727 15.7819 182.727 15.7092 182.8 15.7092C182.873 15.7092 182.873 15.6364 182.945 15.6364C182.945 15.3455 182.945 15.0546 182.945 14.7637C182.945 14.4728 182.945 14.1092 182.945 13.8183C182.945 13.5274 182.873 13.2364 182.873 12.9455C182.8 12.6546 182.727 12.4364 182.654 12.2183C182.582 12.0728 182.509 11.9274 182.364 11.7819C182.291 11.7092 182.145 11.6364 182 11.5637C181.854 11.5637 181.709 11.5637 181.491 11.6364C181.273 11.7092 181.127 11.8546 180.909 12.0728C180.691 12.291 180.473 12.5092 180.4 12.7274C180.254 12.9455 180.182 13.1637 180.109 13.3092C180.036 13.5274 180.036 13.6728 180.036 13.891C180.036 14.1092 180.109 14.2546 180.182 14.4001C180.182 14.691 180.254 14.8364 180.4 15.0546Z" fill="#202020"/>
<path d="M177.491 16.7273C177.418 16.8727 177.418 17.0182 177.345 17.1636C177.345 17.3091 177.345 17.3818 177.345 17.5273C177.345 17.6727 177.345 17.7455 177.418 17.8182C177.491 18.0364 177.636 18.2546 177.855 18.3273C178.073 18.4727 178.364 18.5455 178.655 18.5455C178.945 18.6182 179.309 18.6182 179.6 18.5455C179.891 18.5455 180.255 18.4727 180.545 18.4727C180.618 18.4 180.618 18.2546 180.691 18.1818C180.764 18.1091 180.764 17.9636 180.836 17.8909C180.909 17.8182 180.909 17.6727 180.982 17.6C181.055 17.5273 181.127 17.3818 181.127 17.3091C180.982 16.9455 180.764 16.5091 180.473 16.1455C180.255 15.7818 179.964 15.4182 179.6 15.2C179.309 14.9818 178.945 14.9091 178.655 15.0546C178.291 15.2 178 15.5636 177.636 16.1455C177.636 16.4364 177.564 16.5818 177.491 16.7273Z" fill="#202020"/>
<path d="M176.836 22.6183C177.127 22.6183 177.491 22.5456 177.854 22.4001C178.218 22.2546 178.654 21.9637 179.018 21.7456C179.382 21.4546 179.818 21.1637 180.109 20.9456C180.109 20.8728 180.109 20.7274 180.109 20.6546C180.109 20.5819 180.109 20.4365 180.109 20.3637C180.109 20.291 180.109 20.1456 180.182 20.0728C180.182 20.0001 180.254 19.8546 180.254 19.7819C179.891 19.6365 179.527 19.491 179.091 19.4183C178.654 19.3456 178.218 19.2728 177.854 19.3456C177.418 19.4183 177.054 19.5637 176.764 19.8546C176.473 20.1456 176.254 20.6546 176.182 21.3092C176.182 21.3819 176.182 21.5274 176.182 21.6001C176.182 21.6728 176.182 21.7456 176.182 21.891C176.182 21.9637 176.182 22.0365 176.182 22.1092C176.182 22.1819 176.182 22.2546 176.254 22.3274C176.327 22.4728 176.545 22.6183 176.836 22.6183Z" fill="#202020"/>
<path d="M179.6 24.5819C179.964 24.0728 180.327 23.491 180.618 22.9819C180.618 22.9819 180.545 22.9091 180.545 22.8364C180.545 22.8364 180.473 22.7637 180.473 22.691C180.473 22.6182 180.473 22.6182 180.4 22.5455C180.4 22.4728 180.4 22.4728 180.327 22.4001C180.327 22.3273 180.327 22.3273 180.255 22.2546C180.255 22.1819 180.255 22.1819 180.182 22.1091C180.182 22.0364 180.182 22.0364 180.182 21.9637C180.182 21.891 180.182 21.891 180.182 21.8182C179.745 21.9637 179.309 22.1091 178.8 22.3273C178.291 22.5455 177.855 22.7637 177.418 23.1273C176.982 23.4182 176.691 23.7819 176.545 24.2182C176.4 24.6546 176.327 25.1637 176.545 25.6728C176.764 26.2546 176.982 26.4728 177.345 26.4728C177.636 26.4728 178.073 26.2546 178.436 25.8182C178.8 25.6728 179.236 25.091 179.6 24.5819Z" fill="#202020"/>
<path d="M180.036 29.1637C180.4 28.9456 180.691 28.5092 180.909 27.9274C181.127 27.3456 181.345 26.691 181.491 26.0365C181.636 25.3819 181.782 24.7274 181.855 24.1456C181.782 24.1456 181.709 24.0728 181.636 24.0728C181.564 24.0728 181.491 24.0001 181.418 23.9274C181.345 23.8547 181.273 23.8547 181.2 23.7819C181.127 23.7092 181.055 23.7092 180.982 23.6365C180.691 23.9274 180.327 24.291 179.964 24.7274C179.6 25.091 179.236 25.5274 178.945 25.9637C178.655 26.4001 178.436 26.8365 178.291 27.2728C178.145 27.7092 178.145 28.0728 178.218 28.4365C178.218 28.5092 178.291 28.5819 178.291 28.6547C178.291 28.7274 178.364 28.8001 178.436 28.8001C178.509 28.8728 178.509 28.9456 178.582 28.9456C178.655 29.0183 178.727 29.0183 178.8 29.091C179.309 29.3819 179.673 29.3819 180.036 29.1637Z" fill="#202020"/>
<path d="M183.527 24.2182C183.455 24.2182 183.382 24.2909 183.236 24.2909C183.164 24.2909 183.091 24.2909 182.945 24.2909C182.873 24.2909 182.8 24.2909 182.727 24.2909C182.582 24.6546 182.364 25.0909 182.218 25.5273C182.073 25.9637 181.855 26.4728 181.709 26.9091C181.564 27.3455 181.491 27.8546 181.418 28.2182C181.345 28.6546 181.418 29.0182 181.491 29.2364C181.564 29.3091 181.564 29.4546 181.636 29.5273C181.709 29.6 181.782 29.6728 181.855 29.7455C181.927 29.8182 182.073 29.8182 182.218 29.8182C182.364 29.8182 182.509 29.8182 182.655 29.8182C183.236 29.7455 183.673 29.4546 183.964 29.0182C184.255 28.5818 184.327 28.0728 184.4 27.4909C184.4 26.9091 184.327 26.2546 184.255 25.6728C184.109 25.0909 183.964 24.5091 183.818 24.0728C183.745 24.1455 183.673 24.2182 183.527 24.2182Z" fill="#202020"/>
<path d="M184.909 26.691C184.982 26.9819 185.055 27.2728 185.127 27.5637C185.2 27.7819 185.273 27.9273 185.418 28.0728C185.564 28.2182 185.709 28.291 185.855 28.3637C186 28.4364 186.218 28.3637 186.436 28.291C186.655 28.2182 186.873 28.0728 187.164 27.8546C187.455 27.6364 187.673 27.4182 187.818 27.2001C187.964 26.9819 188.109 26.7637 188.109 26.5455C188.182 26.3273 188.182 26.1092 188.182 25.891C188.182 25.6728 188.109 25.4546 188.036 25.2364C187.964 25.0182 187.818 24.7273 187.6 24.5092C187.455 24.291 187.236 24.0728 187.018 23.8546C186.8 23.6364 186.582 23.491 186.436 23.2728C186.218 23.1273 186 22.9819 185.855 22.8364C185.782 22.9092 185.782 22.9092 185.709 22.9819C185.636 23.0546 185.636 23.0546 185.564 23.1273C185.491 23.2001 185.491 23.2001 185.418 23.2728C185.345 23.2728 185.345 23.3455 185.273 23.3455C185.2 23.3455 185.2 23.4182 185.127 23.4182C185.055 23.4182 185.055 23.491 184.982 23.491C184.909 23.491 184.909 23.5637 184.836 23.5637C184.764 23.5637 184.764 23.6364 184.691 23.6364C184.691 23.9273 184.691 24.291 184.691 24.5819C184.691 24.9455 184.691 25.3092 184.691 25.6001C184.836 25.9637 184.836 26.3273 184.909 26.691Z" fill="#202020"/>
<path d="M189.564 24.5091C190 24.3636 190.364 24 190.8 23.2727C190.873 23.0546 191.018 22.8364 191.018 22.6909C191.091 22.5455 191.091 22.3273 191.164 22.1818C191.164 22.0364 191.164 21.8909 191.164 21.7455C191.164 21.6 191.091 21.5273 191.091 21.3818C190.945 21.0909 190.727 20.8727 190.436 20.7273C190.145 20.5818 189.782 20.5091 189.418 20.4364C189.054 20.3636 188.691 20.3636 188.254 20.3636C187.891 20.3636 187.527 20.4364 187.164 20.4364C187.091 20.5091 187.091 20.6546 187.018 20.7273C186.945 20.8 186.945 20.9455 186.873 21.0182C186.8 21.0909 186.727 21.2364 186.727 21.3091C186.654 21.3818 186.582 21.5273 186.509 21.6C186.727 22.0364 186.945 22.4727 187.309 22.9091C187.6 23.3455 187.964 23.7818 188.327 24.0727C188.764 24.5091 189.2 24.6546 189.564 24.5091Z" fill="#202020"/>
<path d="M190.291 16.3637C189.854 16.5818 189.345 16.8 188.909 17.1637C188.473 17.4546 188.036 17.7455 187.673 18.0364C187.673 18.1091 187.673 18.2546 187.673 18.3273C187.673 18.4 187.673 18.5455 187.673 18.6182C187.673 18.6909 187.673 18.8364 187.6 18.9818C187.6 19.1273 187.527 19.2 187.527 19.3455C187.891 19.4909 188.4 19.6364 188.909 19.7818C189.418 19.9273 189.927 19.9273 190.436 19.9273C190.945 19.8546 191.382 19.7091 191.745 19.3455C192.109 18.9818 192.327 18.4728 192.4 17.6728C192.4 17.5273 192.4 17.4546 192.4 17.3091C192.4 17.2364 192.4 17.0909 192.4 17.0182C192.4 16.9455 192.4 16.8728 192.327 16.8C192.327 16.7273 192.254 16.6546 192.254 16.5818C192.109 16.2182 191.818 16.0728 191.454 16.0728C191.164 16.0728 190.727 16.1455 190.291 16.3637Z" fill="#202020"/>
<path d="M186 21.2364C186.291 20.8 186.509 20.2909 186.654 19.7818C186.8 19.2727 186.873 18.7637 186.873 18.3273C186.873 17.8182 186.8 17.3818 186.582 17.0182C186.436 16.6546 186.145 16.2909 185.854 16.0727C185.564 15.8546 185.2 15.7091 184.909 15.7091C184.545 15.7091 184.182 15.7091 183.818 15.8546C183.454 16 183.018 16.2182 182.654 16.5818C182.291 16.9455 181.927 17.3091 181.709 17.7455C181.418 18.1818 181.2 18.6182 181.054 19.1273C180.909 19.5637 180.836 20.0727 180.836 20.5091C180.836 20.9455 180.909 21.3818 181.054 21.8182C181.2 22.2546 181.418 22.5455 181.709 22.7637C182 22.9818 182.291 23.1273 182.654 23.2C183.018 23.2727 183.382 23.2 183.818 23.0546C184.182 22.9091 184.618 22.6909 184.982 22.3273C185.345 22.1091 185.709 21.7455 186 21.2364Z" fill="#202020"/>
<path d="M171.236 10.9092C171.236 10.3274 170.8 9.89099 170.218 9.89099C169.636 9.89099 169.2 10.3274 169.2 10.9092C169.2 11.491 169.636 11.9274 170.218 11.9274C170.8 11.9274 171.236 11.491 171.236 10.9092Z" fill="#202020"/>
<path d="M175.091 6.83642C175.091 6.2546 174.654 5.81824 174.073 5.81824C173.491 5.81824 173.054 6.2546 173.054 6.83642C173.054 7.41824 173.491 7.8546 174.073 7.8546C174.654 7.8546 175.091 7.41824 175.091 6.83642Z" fill="#202020"/>
<path d="M196.473 22.0364C191.455 22.3273 189.345 27.7091 188.691 30.1091C188.327 28.6546 187.818 28 187.745 28L186.436 29.0182C186.436 29.0182 187.091 29.9636 187.382 32.0727C186 31.3455 182.073 29.6727 179.309 32.5818C179.309 32.5818 182.655 34.8364 187.455 32.5818C187.527 33.0182 187.527 33.5273 187.527 34.1091L189.127 34.1818C189.127 32.9455 189.055 31.9273 188.909 31.1273C195.527 27.9273 196.473 22.0364 196.473 22.0364Z" fill="#202020"/>
<path d="M173.491 15.7091C174.073 15.7091 174.509 15.2727 174.509 14.6909C174.509 14.1091 174.073 13.6727 173.491 13.6727C172.909 13.6727 172.473 14.1091 172.473 14.6909C172.545 15.2727 172.982 15.7091 173.491 15.7091Z" fill="#202020"/>
<path d="M168.545 17.891C169.127 17.891 169.564 17.4546 169.564 16.8728C169.564 16.291 169.127 15.8546 168.545 15.8546C167.964 15.8546 167.527 16.291 167.527 16.8728C167.527 17.4546 167.964 17.891 168.545 17.891Z" fill="#202020"/>
<path d="M172.982 21.9637C173.564 21.9637 174 21.5274 174 20.9456C174 20.3637 173.564 19.9274 172.982 19.9274C172.4 19.9274 171.964 20.3637 171.964 20.9456C171.964 21.5274 172.4 21.9637 172.982 21.9637Z" fill="#202020"/>
<path d="M168.836 23.8546C169.418 23.8546 169.854 23.4182 169.854 22.8364C169.854 22.2546 169.418 21.8182 168.836 21.8182C168.254 21.8182 167.818 22.2546 167.818 22.8364C167.818 23.4182 168.254 23.8546 168.836 23.8546Z" fill="#202020"/>
<path d="M235.207 12.9176C232.12 9.61875 226.491 14.0213 224.959 15.3329C224.229 12.1724 222.037 5.13352 217.004 5.5909C211.627 6.07584 209.837 14.1207 209.416 16.5574C209.366 16.7486 209.337 16.9423 209.323 17.1401C209.317 17.1753 209.31 17.2301 209.31 17.2443C209.307 17.258 209.312 17.267 209.312 17.2793C209.31 17.3219 209.299 17.3636 209.299 17.4062C209.331 19.2727 210.988 20.8386 213.732 21.5929C213.83 21.6193 213.931 21.6326 214.027 21.6326C214.515 21.6326 214.963 21.3088 215.095 20.8173C215.127 20.7107 215.122 20.6065 215.119 20.5028C215.108 20.025 214.806 19.5872 214.321 19.4531C212.659 18.9972 211.532 18.1577 211.518 17.3636C211.514 17.0639 211.667 16.7486 211.977 16.4275C212.947 15.4176 215.034 14.7366 217.296 14.6937C220.905 14.6131 223.153 16.0767 223.174 17.1435C223.19 17.9352 222.098 18.8139 220.462 19.3366C219.98 19.4881 219.695 19.9352 219.704 20.4139C219.706 20.5193 219.704 20.625 219.738 20.7287C219.923 21.3116 220.55 21.6378 221.13 21.4497C221.971 21.1846 222.687 20.8375 223.296 20.4398C223.45 20.7608 223.635 21.0838 223.869 21.4099C224.224 21.9071 224.913 22.0233 225.418 21.667C225.529 21.5872 225.614 21.4863 225.688 21.3778C225.937 21.0057 225.95 20.5057 225.675 20.1198C225.168 19.4105 225.009 18.8247 225.081 18.5227C225.105 18.4681 225.129 18.4139 225.15 18.3593C225.309 18.1833 225.762 18.0502 226.496 18.1378C227.488 18.2551 228.687 18.731 229.782 19.4451C232.112 20.9602 232.953 22.794 232.632 23.2846C232.489 23.5037 231.832 23.7196 230.609 23.4227C230.145 23.3139 229.684 23.5147 229.435 23.8892C229.363 23.9952 229.302 24.1094 229.27 24.2414C229.124 24.8358 229.49 25.4361 230.087 25.5809C230.659 25.7187 231.197 25.7875 231.691 25.7875C232.955 25.7863 233.939 25.3443 234.493 24.4963C234.605 24.3253 234.668 24.1355 234.734 23.9489C234.804 23.8755 234.864 23.7931 234.915 23.7022C235.069 23.4147 238.659 16.6136 235.207 12.9176Z" fill="#202020"/>
<path d="M218.518 17.6529C218.547 17.0407 218.075 16.5205 217.463 16.4915C216.842 16.4651 216.331 16.9341 216.302 17.5469C216.254 18.5568 216.254 19.5327 216.277 20.4796C216.482 28.0781 218.778 33.5057 218.89 33.7605C219.07 34.1799 219.478 34.4313 219.908 34.4313C220.053 34.4313 220.202 34.402 220.345 34.3395C220.908 34.0975 221.167 33.4446 220.926 32.883C220.899 32.8247 218.704 27.6066 218.5 20.437C218.473 19.5355 218.473 18.6103 218.518 17.6529Z" fill="#202020"/>
<path d="M229.034 20.7046C228.557 20.322 227.859 20.3944 227.472 20.8714C227.17 21.2472 226.889 21.6251 226.624 22.0049C222.84 27.4186 222.854 32.9972 222.859 33.2487C222.864 33.8561 223.36 34.3467 223.967 34.3467C223.972 34.3467 223.978 34.3467 223.98 34.3467C224.593 34.3387 225.083 33.8359 225.075 33.2237C225.075 33.1691 225.062 28.0947 228.464 23.2393C228.695 22.9135 228.939 22.589 229.198 22.2652C229.583 21.7893 229.511 21.089 229.034 20.7046Z" fill="#202020"/>
<path d="M268.582 8.94543C267.054 8.94543 265.527 9.30907 264.218 10.0363C263.418 9.3818 262.473 9.01816 261.382 9.01816C259.564 9.01816 258.036 10.0363 257.382 11.6363C257.236 11.6363 257.164 11.6363 257.018 11.6363C253.236 11.6363 250.182 14.6909 250.182 18.4727C250.182 20.8727 251.491 23.1273 253.527 24.3636C253.6 28 256.582 30.9818 260.218 30.9818C262.109 30.9818 263.854 30.1818 265.091 28.8727C266.109 30.1091 267.564 30.8363 269.164 30.8363C272.073 30.8363 274.4 28.5091 274.4 25.6C274.4 25.5273 274.4 25.4545 274.4 25.3091C276.509 23.5636 277.818 20.9454 277.818 18.1818C277.818 13.0909 273.673 8.94543 268.582 8.94543ZM272.945 24.2182L272.509 24.5091L272.582 25.0182C272.582 25.2363 272.654 25.3818 272.654 25.5273C272.654 27.4182 271.127 28.9454 269.236 28.9454C267.854 28.9454 266.618 28.1454 266.036 26.8363L265.309 25.2363L264.436 26.7636C263.564 28.2182 261.964 29.1636 260.218 29.1636C257.527 29.1636 255.345 26.9818 255.345 24.2909C255.345 24.1454 255.345 24.0727 255.345 23.9273L255.418 23.3454L254.836 23.0545C253.091 22.1818 251.927 20.4363 251.927 18.4727C251.927 15.7091 254.182 13.3818 257.018 13.3818C257.236 13.3818 257.527 13.3818 257.818 13.4545L258.691 13.6L258.909 12.8C259.2 11.6363 260.218 10.7636 261.454 10.7636C262.254 10.7636 262.909 11.1273 263.418 11.7091L263.927 12.2909L264.582 11.8545C265.818 11.0545 267.2 10.6909 268.582 10.6909C272.727 10.7636 276 14.1091 276 18.1818C276 20.5818 274.909 22.8363 272.945 24.2182Z" fill="#202020"/>
<path d="M255.418 15.7091C254.764 15.7091 254.327 16.2182 254.327 16.8C254.327 17.4546 254.836 17.8909 255.418 17.8909C256.073 17.8909 256.509 17.3818 256.509 16.8C256.509 16.2182 256 15.7091 255.418 15.7091Z" fill="#202020"/>
<path d="M261.745 12.5818C261.236 12.5818 260.873 12.9454 260.873 13.4545C260.873 13.8909 261.236 14.3272 261.745 14.3272C262.182 14.3272 262.618 13.9636 262.618 13.4545C262.618 13.0182 262.182 12.5818 261.745 12.5818Z" fill="#202020"/>
<path d="M261.091 17.3817C260.509 17.3817 260.073 17.8181 260.073 18.3999C260.073 18.9817 260.509 19.4181 261.091 19.4181C261.673 19.4181 262.109 18.9817 262.109 18.3999C262.182 17.8181 261.673 17.3817 261.091 17.3817Z" fill="#202020"/>
<path d="M257.891 22.3273C257.382 22.3273 256.945 22.7636 256.945 23.2727C256.945 23.7818 257.382 24.2182 257.891 24.2182C258.4 24.2182 258.836 23.7818 258.836 23.2727C258.836 22.7636 258.4 22.3273 257.891 22.3273Z" fill="#202020"/>
<path d="M263.564 22.2545C263.055 22.2545 262.618 22.6909 262.618 23.2C262.618 23.7091 263.055 24.1454 263.564 24.1454C264.073 24.1454 264.509 23.7091 264.509 23.2C264.509 22.6909 264.073 22.2545 263.564 22.2545Z" fill="#202020"/>
<path d="M267.127 16.2181C266.836 16.2181 266.545 16.509 266.545 16.8C266.545 17.0909 266.836 17.3818 267.127 17.3818C267.418 17.3818 267.709 17.0909 267.709 16.8C267.709 16.509 267.491 16.2181 267.127 16.2181Z" fill="#202020"/>
<path d="M269.891 12.1455C269.309 12.1455 268.8 12.6546 268.8 13.2364C268.8 13.8182 269.309 14.3273 269.891 14.3273C270.473 14.3273 270.982 13.8182 270.982 13.2364C270.982 12.6546 270.473 12.1455 269.891 12.1455Z" fill="#202020"/>
<path d="M272.145 18.3999C272.145 18.9817 272.582 19.4181 273.164 19.4181C273.745 19.4181 274.182 18.9817 274.182 18.3999C274.182 17.8181 273.745 17.3817 273.164 17.3817C272.582 17.3817 272.145 17.8181 272.145 18.3999Z" fill="#202020"/>
<path d="M268.436 20.8728C268.8 20.8728 269.164 20.5818 269.164 20.1455C269.164 19.7818 268.873 19.4182 268.436 19.4182C268.073 19.4182 267.709 19.7091 267.709 20.1455C267.709 20.5091 268.073 20.8728 268.436 20.8728Z" fill="#202020"/>
<path d="M268.945 23.4908C268.291 23.4908 267.709 23.9999 267.709 24.7272C267.709 25.3818 268.218 25.9636 268.945 25.9636C269.6 25.9636 270.182 25.4545 270.182 24.7272C270.109 23.9999 269.6 23.4908 268.945 23.4908Z" fill="#202020"/>
<path d="M259.709 26.6909C259.491 26.6909 259.273 26.9091 259.273 27.1273C259.273 27.3455 259.491 27.5636 259.709 27.5636C259.927 27.5636 260.145 27.3455 260.145 27.1273C260.218 26.8364 260 26.6909 259.709 26.6909Z" fill="#202020"/>
</svg>
