<svg width="161" height="79" viewBox="0 0 161 79" fill="none" xmlns="http://www.w3.org/2000/svg">
<path d="M1.78362 50.9493V17.1019L80.2603 1.78144L159.807 17.1019V53.0871L117.715 63.0632L80.2603 76.9585C78.8335 74.3932 68.9644 72.3267 64.2083 71.6141C51.9612 70.0702 24.6846 66.1985 13.5551 63.0632C2.4257 59.9278 1.0702 53.6809 1.78362 50.9493Z" fill="white"/>
<path d="M80.4957 51.4588V74.8756C80.5164 74.8927 80.5364 74.9034 80.5571 74.9169C75.2492 71.0519 62.5531 69.3702 48.0035 67.4527C27.9955 64.8161 3.10197 61.5205 3.10197 51.4588L3.14264 17.9456L80.4964 3.161V17.9456H157.852L157.893 51.4581L80.4957 51.4588ZM80.4957 0L0 15.3896V51.4588C0 64.2411 24.1944 67.4441 47.5904 70.531C61.3781 72.3538 75.638 74.2364 79.3985 77.9803L80.4144 78.9993L81.5124 78.0644C85.8443 74.3533 99.2695 72.5704 113.491 70.67C136.85 67.556 161 64.3387 161 51.4581V15.3896L80.4964 0" fill="#E2C65D"/>
<path d="M15.4499 34.4753H18.4534C20.0087 34.4753 20.6222 33.3116 20.6222 32.3347C20.6222 31.347 20.0087 30.1848 18.4534 30.1848H15.4499V34.4753ZM21.041 44.2226L17.6729 38.3253H15.4499V44.2226H11.0973V26.1288H17.8591C22.4129 26.1288 25.1553 28.6107 25.1553 32.3354C25.1553 34.7624 23.9882 36.5695 21.895 37.5579L25.903 44.2226H21.041ZM43.5909 40.1666V44.2226H30.2634V26.1288H43.4375V30.1848H34.6082V33.1627H41.527V36.9593H34.6082V40.1666H43.5917H43.5909ZM57.6026 31.8637C57.166 30.2618 55.7641 29.515 54.4735 29.515C53.168 29.515 52.4253 30.157 52.4253 30.881C52.4253 32.071 54.2345 32.5114 56.4326 33.3116C59.1236 34.29 61.9452 35.8227 61.9452 38.9239C61.9452 42.2352 59.1008 44.5846 54.8816 44.5846C51.1126 44.5846 48.4165 42.4903 47.2137 39.107L51.3865 37.9954C51.8503 39.3621 53.1487 40.7317 55.0628 40.7317C56.6181 40.7317 57.3429 40.0091 57.3429 39.1298C57.3429 37.6833 55.2226 37.3192 52.6315 36.3394C50.4562 35.5071 47.9457 34.3228 47.9457 31.1404C47.9457 28.3172 50.793 25.7633 54.7282 25.7633C58.1976 25.7633 60.9421 27.8868 61.7918 30.7271L57.6026 31.8637ZM73.5284 34.4753C75.2092 34.4753 76.218 33.6793 76.218 32.3347C76.218 30.9858 75.2092 30.1848 73.5284 30.1848H71.0478V34.4753H73.5284ZM73.6026 26.1288C78.0579 26.1288 80.7475 28.4483 80.7475 32.3354C80.7475 36.2118 78.0579 38.5327 73.6026 38.5327H71.0478V44.2226H66.6902V26.1288H73.6026ZM85.103 26.1288H89.4513V44.2226H85.103V26.1288ZM108.227 40.1666V44.2226H95.3043V26.1288H99.6576V40.1666H108.227ZM120.081 40.2942C123.036 40.2942 124.978 38.2035 124.978 35.1807C124.978 32.1209 123.036 30.053 120.081 30.053C117.159 30.053 115.212 32.1209 115.212 35.1807C115.212 38.2035 117.16 40.2942 120.081 40.2942ZM120.081 25.7633C125.289 25.7633 129.513 29.7209 129.513 35.1807C129.513 40.6341 125.289 44.5846 120.081 44.5846C114.88 44.5846 110.689 40.6341 110.689 35.1807C110.689 29.7209 114.879 25.7633 120.081 25.7633ZM149.786 26.1288V44.2226H145.693L141.988 39.1797C140.336 36.9059 137.899 33.4684 137.874 33.4684H137.851C137.822 33.4684 137.874 36.2638 137.874 40.2215V44.2226H133.525V26.1288H137.615L141.473 31.2936C142.631 32.8499 145.41 36.7527 145.433 36.7527H145.462C145.482 36.7527 145.433 33.5432 145.433 30.2618V26.1288H149.786ZM154.981 73.5003C155.66 73.5003 156.259 73.4326 156.259 72.6352C156.259 71.9562 155.592 71.8885 155.061 71.8885H153.966V73.5003H154.981ZM153.966 76.6278H153.061V71.1182H155.153C156.485 71.1182 157.165 71.5835 157.165 72.7008C157.165 73.6998 156.539 74.1117 155.726 74.2051L157.272 76.6278H156.246L154.82 74.2713H153.966V76.6278ZM154.953 69.6674C152.781 69.6674 151.115 71.3576 151.115 73.7789C151.115 76.0428 152.582 77.8926 154.953 77.8926C157.086 77.8926 158.763 76.2145 158.763 73.7796C158.763 71.3576 157.085 69.6674 154.953 69.6674ZM154.953 78.757C152.089 78.757 150.05 76.6136 150.05 73.7796C150.05 70.7982 152.315 68.8016 154.953 68.8016C157.565 68.8016 159.83 70.7982 159.83 73.7796C159.83 76.7597 157.565 78.757 154.953 78.757Z" fill="#E2C65D"/>
</svg>
